<svg xmlns="http://www.w3.org/2000/svg" preserveAspectRatio="xMidYMid" width="39" height="39" viewBox="0 0 39 39"><defs><style>.cls-1{fill:#fff;filter:url(#color-overlay-1);fill-rule:evenodd}</style><filter id="color-overlay-1" filterUnits="userSpaceOnUse"><feFlood flood-color="#444"/><feComposite operator="in" in2="SourceGraphic"/><feBlend in2="SourceGraphic" result="solidFill"/></filter></defs><path d="M38.522 14.145c-.67 1.615-2.027 2.917-3.733 3.583a5.382 5.382 0 0 1-.216 3.543c-.62 1.493-1.833 2.647-3.417 3.248a6.413 6.413 0 0 1-2.294.422c-.896 0-1.77-.207-2.574-.557l.035.018c-.035.083-3.75 8.25-3.75 13.848v.75h-8.77l.224-.93c.067-.282 1.58-7.03-4.437-12.45-.31.033-.62.084-.934.084-3.323 0-6.287-1.853-7.555-4.72a7.13 7.13 0 0 1 .227-6.288A8.89 8.89 0 0 1 .702 6.6C1.728 4.13 3.738 2.22 6.365 1.224 9.482.04 13.13.41 15.907 2.154a9.558 9.558 0 0 1 2.61-1.49 10.058 10.058 0 0 1 3.588-.66c3.87 0 7.327 2.157 8.805 5.497l.036.084c.41-.07.825-.106 1.24-.106 2.764 0 5.23 1.537 6.28 3.915a5.98 5.98 0 0 1 .056 4.752zM15.632 37.5h5.83c.27-5.835 3.535-13.37 3.68-13.7l.424.214c-.207-.123-.416-.243-.606-.39a7.318 7.318 0 0 1-2.32 1.427 7.86 7.86 0 0 1-2.797.515c-2.02 0-3.973-.787-5.38-2.135a8.21 8.21 0 0 1-2.73 1.708c-.12.046-.247.063-.368.103 4.628 4.715 4.53 10.123 4.267 12.26zm21.476-27.497c-.813-1.84-2.745-3.026-4.92-3.026-.514 0-1.024.067-1.52.2l-.672.184-.223-.665a7.64 7.64 0 0 0-.222-.587c-1.238-2.797-4.16-4.605-7.445-4.605-1.05 0-2.08.188-3.062.56-.968.37-1.836.902-2.58 1.58l-.443.405-.487-.347c-1.525-1.083-3.42-1.68-5.335-1.68-1.135 0-2.25.204-3.31.606-2.238.85-3.947 2.466-4.812 4.55a7.39 7.39 0 0 0 .07 5.876c.174.393.394.783.672 1.196l.27.4-.25.414c-1.004 1.64-1.14 3.576-.374 5.31 1.03 2.33 3.46 3.832 6.195 3.832.874 0 1.732-.158 2.547-.468a6.628 6.628 0 0 0 2.7-1.883l.572-.673.562.683c1.137 1.38 2.932 2.205 4.8 2.205a6.38 6.38 0 0 0 2.27-.418 5.91 5.91 0 0 0 2.268-1.55l.52-.564.545.537c.885.87 2.13 1.368 3.418 1.37a4.95 4.95 0 0 0 1.77-.327c1.197-.453 2.11-1.315 2.568-2.423a3.896 3.896 0 0 0-.02-3.064l-.056-.12-.32-.79 1.025-.266c.125-.03.253-.06.38-.107 1.367-.52 2.412-1.507 2.94-2.78a4.49 4.49 0 0 0-.042-3.564zm-19.073 19.67l-1.33.67-2.232-4.494 1.33-.672 2.232 4.495zm2.3.458l-.745 4.495-1.467-.245.744-4.495 1.467.246z" class="cls-1"/></svg>