<svg xmlns="http://www.w3.org/2000/svg" preserveAspectRatio="xMidYMid" width="47" height="38" viewBox="0 0 47 38"><defs><style>.cls-1{fill:#fff;filter:url(#color-overlay-1);fill-rule:evenodd}</style><filter id="color-overlay-1" filterUnits="userSpaceOnUse"><feFlood flood-color="#222"/><feComposite operator="in" in2="SourceGraphic"/><feBlend in2="SourceGraphic" result="solidFill"/></filter></defs><path d="M35.25 37.193c-4.278 0-8.02-2.277-10.074-5.66H12.96c0 .02.006.04.006.06 0 3.53-2.91 6.4-6.483 6.4-3.575 0-6.483-2.87-6.483-6.4 0-1.608.625-3.063 1.622-4.188v-8.01c0-2.207 1.817-4 4.05-4h2.432v-5.6h1.62v5.6h.81v-5.6h1.62v5.6H23.5v-2.4c0-.06.022-.113.034-.17l-1.7-.782a.795.795 0 0 1-.39-1.064c.188-.4.67-.575 1.076-.388l4.672 2.154c.406.186.58.662.392 1.063a.81.81 0 0 1-1.077.386l-1.386-.64v1.838h4.54c.427-.23.873-.43 1.33-.608a.775.775 0 0 1-.04-.463l1.354-5.44a.81.81 0 0 1 .98-.585.8.8 0 0 1 .594.968l-1.254 5.036a11.837 11.837 0 0 1 2.626-.307c6.48 0 11.75 5.203 11.75 11.598 0 6.396-5.27 11.6-11.75 11.6zm-33.63-5.6c0 2.647 2.182 4.8 4.863 4.8 2.68 0 4.862-2.153 4.862-4.8 0-.304-.036-.6-.09-.89-.03-.147-.08-.286-.12-.43-.044-.15-.083-.3-.14-.445-.05-.12-.11-.23-.168-.346a4.624 4.624 0 0 0-.252-.458c-.06-.096-.13-.185-.198-.276a5.064 5.064 0 0 0-.36-.43 4.823 4.823 0 0 0-.673-.585 3.966 3.966 0 0 0-.772-.455c-.097-.046-.192-.095-.292-.135a5.06 5.06 0 0 0-.59-.182c-.094-.022-.185-.056-.28-.074a4.875 4.875 0 0 0-1.9.005c-.05.01-.094.03-.142.042a4.856 4.856 0 0 0-1.99.997c-.11.092-.23.17-.334.274a4.754 4.754 0 0 0-1.423 3.39zm4.052-14.6c-1.055 0-1.946.672-2.28 1.6h10.384c.448 0 .81.36.81.8 0 .442-.362.8-.81.8H3.242v1.626h10.534a.81.81 0 0 1 .81.81.81.81 0 0 1-.81.814H3.246v2.6a6.427 6.427 0 0 1 2.062-.732c.384-.07.775-.118 1.175-.118s.793.046 1.182.118c.164.03.32.08.478.122.228.06.452.123.672.206.136.052.266.11.397.17 1.77.79 3.216 2.285 3.754 4.106H24.31a28.48 28.48 0 0 1-.283-.887c-.296-.99-.527-2.04-.527-3.037 0-.065.01-.128.01-.193 0-.07-.01-.137-.01-.207 0-3.412 1.51-6.475 3.893-8.6H5.673zm29.578-1.4a10.2 10.2 0 0 0-3.39.59l-1.3.71c-3.304 1.808-5.365 5.218-5.428 8.93.125 5.408 4.61 9.77 10.118 9.77 5.585 0 10.13-4.485 10.13-10 0-5.513-4.545-10-10.13-10zm0 16.8c-3.798 0-6.888-3.05-6.888-6.8s3.09-6.8 6.888-6.8 6.888 3.05 6.888 6.8-3.09 6.8-6.888 6.8zm0-12c-2.904 0-5.267 2.333-5.267 5.2 0 2.868 2.363 5.2 5.267 5.2 2.904 0 5.267-2.332 5.267-5.2 0-2.867-2.363-5.2-5.267-5.2zm-.135 6.8a1.61 1.61 0 0 1-1.62-1.6c0-.883.725-1.6 1.62-1.6.895 0 1.62.717 1.62 1.6 0 .884-.725 1.6-1.62 1.6zM6.483 29.77c.894 0 1.62.718 1.62 1.6 0 .884-.726 1.6-1.62 1.6-.894 0-1.62-.716-1.62-1.6 0-.882.726-1.6 1.62-1.6zM33.68 4.206l-.653-1.464c1.308-.567 2.434-1.464 3.44-2.74l1.28.984c-1.178 1.49-2.508 2.543-4.068 3.22zm-10.232.343c-1.288-.197-2.62-.4-3.876-.484l.11-1.597c1.327.09 2.692.297 4.012.498.96.146 1.95.296 2.91.398l-.174 1.59a66.644 66.644 0 0 1-2.982-.407zM10.462 8.623l-1.41-.792c.978-1.69 2.105-2.945 3.45-3.834l.902 1.33c-1.13.747-2.094 1.825-2.942 3.296z" class="cls-1"/></svg>