<svg xmlns="http://www.w3.org/2000/svg" preserveAspectRatio="xMidYMid" width="36" height="33" viewBox="0 0 36 33"><defs><style>.cls-1{fill:#fff;filter:url(#color-overlay-1);fill-rule:evenodd}</style><filter id="color-overlay-1" filterUnits="userSpaceOnUse"><feFlood flood-color="#222"/><feComposite operator="in" in2="SourceGraphic"/><feBlend in2="SourceGraphic" result="solidFill"/></filter></defs><path d="M36 14.08v5.68h-5.877v-2.094h-8.81a3.29 3.29 0 0 1-6.26 0h-.23c-4.832.566-8.542 4.133-9.062 8.91 1.436.355 2.505 1.628 2.505 3.153 0 1.8-1.483 3.262-3.306 3.262-1.824 0-3.307-1.463-3.307-3.262 0-1.57 1.132-2.886 2.633-3.194.392-3.84 2.655-7.067 5.88-8.868H5.88v2.094H0v-5.68h5.878v2.15h8.704c.116-.013.23-.036.346-.047a3.29 3.29 0 0 1 3.256-2.767 3.3 3.3 0 0 1 3.092 2.14c5.147-.323 9.036-4.156 9.537-9.184-1.35-.41-2.344-1.638-2.344-3.105 0-1.8 1.482-3.262 3.306-3.262 1.823 0 3.306 1.463 3.306 3.262 0 1.63-1.22 2.97-2.804 3.213a11.648 11.648 0 0 1-7.415 9.75h5.26v-2.15H36zm-4.408 4.303h2.94v-2.87h-2.94v2.87zM3.122 29.728c0 1 .825 1.812 1.837 1.812s1.836-.813 1.836-1.812c0-1-.824-1.812-1.837-1.812s-1.837.813-1.837 1.812zM4.41 15.514h-2.94v2.87h2.94v-2.87zm13.776-.648c-1.013 0-1.837.814-1.837 1.812 0 1 .824 1.813 1.837 1.813a1.826 1.826 0 0 0 1.836-1.812c0-.998-.823-1.812-1.836-1.812zm15.428-11.6c0-.998-.823-1.81-1.836-1.81-1.013 0-1.837.812-1.837 1.81 0 1 .823 1.814 1.836 1.814a1.826 1.826 0 0 0 1.836-1.813z" class="cls-1"/></svg>