<svg xmlns="http://www.w3.org/2000/svg" xmlns:xlink="http://www.w3.org/1999/xlink" preserveAspectRatio="xMidYMid" width="39" height="39" viewBox="0 0 39 39">
  <defs>
    <style>
      .cls-1 {
        fill: #fff;
        filter: url(#color-overlay-1);
        fill-rule: evenodd;
      }
    </style>

    <filter id="color-overlay-1" filterUnits="userSpaceOnUse">
      <feFlood flood-color="#444"/>
      <feComposite operator="in" in2="SourceGraphic"/>
      <feBlend in2="SourceGraphic" result="solidFill"/>
    </filter>
  </defs>
  <path d="M38.522,14.145 C37.853,15.760 36.495,17.062 34.789,17.728 C35.119,18.903 35.046,20.132 34.574,21.271 C33.955,22.763 32.741,23.917 31.157,24.518 C30.423,24.798 29.651,24.940 28.863,24.940 C27.967,24.940 27.094,24.733 26.289,24.383 L26.325,24.401 C26.290,24.483 22.576,32.650 22.576,38.248 L22.576,38.997 L13.805,38.997 L14.029,38.069 C14.097,37.786 15.611,31.037 9.593,25.617 C9.283,25.651 8.974,25.702 8.659,25.702 C5.337,25.702 2.373,23.849 1.105,20.981 C0.200,18.934 0.288,16.669 1.332,14.694 C1.120,14.348 0.940,14.006 0.788,13.662 C-0.215,11.394 -0.245,8.887 0.703,6.599 C1.727,4.131 3.737,2.221 6.364,1.224 C9.482,0.039 13.130,0.409 15.907,2.153 C16.685,1.526 17.561,1.027 18.518,0.663 C19.667,0.226 20.875,0.005 22.105,0.005 C25.976,0.005 29.432,2.161 30.910,5.501 C30.922,5.529 30.935,5.557 30.946,5.584 C31.355,5.513 31.771,5.478 32.187,5.478 C34.950,5.478 37.415,7.015 38.467,9.393 C39.141,10.921 39.161,12.607 38.522,14.145 ZM15.632,37.499 L21.462,37.499 C21.733,31.665 24.997,24.130 25.142,23.799 L25.566,24.014 C25.359,23.891 25.150,23.771 24.960,23.625 C24.273,24.248 23.494,24.725 22.639,25.051 C21.742,25.391 20.802,25.565 19.843,25.565 C17.824,25.565 15.870,24.778 14.464,23.430 C13.689,24.165 12.758,24.748 11.732,25.138 C11.613,25.184 11.486,25.201 11.365,25.241 C15.993,29.955 15.896,35.363 15.632,37.499 ZM37.108,10.003 C36.295,8.164 34.363,6.977 32.187,6.977 C31.674,6.977 31.164,7.044 30.669,7.178 L29.996,7.361 L29.773,6.695 C29.706,6.499 29.636,6.303 29.551,6.108 C28.312,3.311 25.389,1.503 22.105,1.503 C21.054,1.503 20.024,1.691 19.043,2.064 C18.075,2.432 17.207,2.965 16.462,3.643 L16.020,4.048 L15.533,3.701 C14.008,2.617 12.113,2.019 10.198,2.019 C9.063,2.019 7.949,2.224 6.888,2.626 C4.650,3.476 2.941,5.092 2.076,7.177 C1.287,9.078 1.312,11.165 2.147,13.052 C2.320,13.445 2.540,13.835 2.818,14.248 L3.089,14.649 L2.837,15.062 C1.834,16.703 1.698,18.638 2.464,20.372 C3.493,22.701 5.924,24.204 8.659,24.204 C9.534,24.204 10.392,24.046 11.207,23.736 C12.266,23.335 13.199,22.683 13.906,21.853 L14.479,21.180 L15.042,21.863 C16.179,23.243 17.974,24.068 19.843,24.068 C20.622,24.068 21.385,23.926 22.113,23.650 C22.971,23.324 23.735,22.802 24.380,22.099 L24.899,21.536 L25.445,22.073 C26.330,22.942 27.576,23.441 28.863,23.442 C29.470,23.442 30.065,23.332 30.632,23.116 C31.830,22.663 32.742,21.801 33.201,20.693 C33.613,19.702 33.605,18.615 33.180,17.629 L33.124,17.511 L32.804,16.721 L33.829,16.454 C33.955,16.423 34.083,16.393 34.209,16.347 C35.577,15.826 36.622,14.840 37.150,13.568 C37.628,12.414 37.614,11.149 37.108,10.003 ZM18.035,29.673 L16.704,30.343 L14.473,25.849 L15.804,25.178 L18.035,29.673 ZM20.334,30.131 L19.590,34.625 L18.123,34.380 L18.867,29.885 L20.334,30.131 Z" class="cls-1"/>
</svg>
