<svg xmlns="http://www.w3.org/2000/svg" xmlns:xlink="http://www.w3.org/1999/xlink" preserveAspectRatio="xMidYMid" width="47" height="38" viewBox="0 0 47 38">
  <defs>
    <style>
      .cls-1 {
        fill: #fff;
        filter: url(#color-overlay-1);
        fill-rule: evenodd;
      }
    </style>

    <filter id="color-overlay-1" filterUnits="userSpaceOnUse">
      <feFlood flood-color="#222"/>
      <feComposite operator="in" in2="SourceGraphic"/>
      <feBlend in2="SourceGraphic" result="solidFill"/>
    </filter>
  </defs>
  <path d="M35.250,37.193 C30.972,37.193 27.231,34.916 25.176,31.533 L12.959,31.533 C12.960,31.554 12.966,31.573 12.966,31.594 C12.966,35.122 10.057,37.993 6.483,37.993 C2.908,37.993 0.000,35.122 0.000,31.594 C0.000,29.985 0.625,28.530 1.622,27.405 C1.622,27.401 1.621,27.398 1.621,27.394 L1.621,19.394 C1.621,17.188 3.439,15.394 5.672,15.394 L8.104,15.394 L8.104,9.794 L9.724,9.794 L9.724,15.394 L10.535,15.394 L10.535,9.794 L12.155,9.794 L12.155,15.394 L23.500,15.394 L23.500,12.994 C23.500,12.934 23.522,12.882 23.534,12.826 L21.834,12.043 C21.428,11.855 21.253,11.380 21.443,10.979 C21.632,10.579 22.114,10.405 22.520,10.592 L27.192,12.746 C27.598,12.932 27.773,13.408 27.584,13.809 C27.446,14.100 27.155,14.271 26.850,14.271 C26.735,14.271 26.618,14.246 26.507,14.196 L25.121,13.557 L25.121,15.394 L29.659,15.394 C30.087,15.165 30.533,14.963 30.991,14.786 C30.937,14.641 30.910,14.485 30.950,14.323 L32.304,8.883 C32.411,8.454 32.850,8.193 33.284,8.298 C33.718,8.404 33.984,8.836 33.878,9.266 L32.624,14.302 C33.470,14.110 34.346,13.995 35.250,13.995 C41.729,13.995 47.000,19.198 47.000,25.593 C47.000,31.989 41.729,37.193 35.250,37.193 ZM1.621,31.594 C1.621,34.240 3.802,36.393 6.483,36.393 C9.164,36.393 11.345,34.240 11.345,31.594 C11.345,31.289 11.309,30.993 11.254,30.704 C11.226,30.556 11.176,30.417 11.135,30.274 C11.091,30.124 11.052,29.972 10.994,29.828 C10.946,29.708 10.884,29.597 10.827,29.482 C10.749,29.326 10.670,29.170 10.575,29.024 C10.514,28.928 10.444,28.839 10.377,28.748 C10.264,28.599 10.147,28.455 10.018,28.319 C9.944,28.242 9.867,28.167 9.789,28.095 C9.649,27.966 9.500,27.846 9.345,27.734 C9.259,27.671 9.173,27.608 9.082,27.552 C8.919,27.449 8.748,27.361 8.573,27.278 C8.476,27.232 8.381,27.183 8.281,27.143 C8.091,27.068 7.891,27.013 7.690,26.961 C7.596,26.938 7.505,26.904 7.409,26.886 C7.108,26.829 6.800,26.794 6.483,26.794 C6.149,26.794 5.823,26.827 5.509,26.891 C5.460,26.901 5.416,26.922 5.368,26.933 C4.621,27.108 3.950,27.458 3.379,27.930 C3.268,28.022 3.148,28.101 3.044,28.204 C2.165,29.073 1.621,30.272 1.621,31.594 ZM5.672,16.994 C4.617,16.994 3.726,17.665 3.391,18.594 L13.776,18.594 C14.224,18.594 14.586,18.952 14.586,19.394 C14.586,19.835 14.224,20.193 13.776,20.193 L3.242,20.193 L3.243,21.819 L13.776,21.819 C14.224,21.819 14.586,22.182 14.586,22.631 C14.586,23.081 14.224,23.444 13.776,23.444 L3.245,23.444 L3.247,26.045 C3.813,25.722 4.427,25.499 5.067,25.359 C5.147,25.341 5.227,25.326 5.308,25.312 C5.692,25.242 6.083,25.194 6.483,25.194 C6.882,25.194 7.276,25.240 7.665,25.312 C7.829,25.342 7.984,25.392 8.143,25.434 C8.371,25.494 8.595,25.557 8.815,25.640 C8.951,25.692 9.081,25.749 9.212,25.810 C10.982,26.601 12.428,28.095 12.966,29.916 L24.310,29.916 C24.215,29.635 24.122,29.344 24.033,29.050 C24.031,29.043 24.029,29.036 24.027,29.029 C23.731,28.040 23.500,26.989 23.500,25.993 C23.500,25.928 23.510,25.865 23.511,25.800 C23.509,25.730 23.500,25.663 23.500,25.593 C23.500,22.181 25.009,19.118 27.393,16.994 L5.672,16.994 ZM35.250,15.594 C34.060,15.594 32.923,15.809 31.861,16.182 L30.560,16.894 C27.256,18.701 25.195,22.111 25.132,25.822 C25.257,31.231 29.743,35.593 35.250,35.593 C40.835,35.593 45.379,31.108 45.379,25.593 C45.379,20.080 40.835,15.594 35.250,15.594 ZM35.250,32.394 C31.452,32.394 28.362,29.342 28.362,25.593 C28.362,21.844 31.452,18.794 35.250,18.794 C39.048,18.794 42.138,21.844 42.138,25.593 C42.138,29.342 39.048,32.394 35.250,32.394 ZM35.250,20.393 C32.346,20.393 29.983,22.726 29.983,25.593 C29.983,28.461 32.346,30.793 35.250,30.793 C38.154,30.793 40.517,28.461 40.517,25.593 C40.517,22.726 38.154,20.393 35.250,20.393 ZM35.115,27.194 C34.220,27.194 33.494,26.477 33.494,25.593 C33.494,24.710 34.220,23.994 35.115,23.994 C36.010,23.994 36.735,24.710 36.735,25.593 C36.735,26.477 36.010,27.194 35.115,27.194 ZM6.483,29.768 C7.377,29.768 8.104,30.486 8.104,31.368 C8.104,32.252 7.377,32.969 6.483,32.969 C5.589,32.969 4.862,32.252 4.862,31.368 C4.862,30.486 5.589,29.768 6.483,29.768 ZM33.679,4.206 L33.027,2.742 C34.335,2.175 35.461,1.278 36.468,0.003 L37.746,0.986 C36.569,2.476 35.239,3.529 33.679,4.206 ZM23.448,4.549 C22.160,4.353 20.829,4.150 19.572,4.066 L19.683,2.469 C21.009,2.559 22.374,2.767 23.694,2.968 C24.653,3.114 25.645,3.264 26.605,3.366 L26.430,4.957 C25.434,4.851 24.424,4.698 23.448,4.549 ZM10.462,8.624 L9.053,7.832 C10.030,6.141 11.157,4.887 12.502,3.998 L13.404,5.327 C12.273,6.075 11.310,7.153 10.462,8.624 Z" class="cls-1"/>
</svg>
