<svg xmlns="http://www.w3.org/2000/svg" xmlns:xlink="http://www.w3.org/1999/xlink" preserveAspectRatio="xMidYMid" width="36" height="33" viewBox="0 0 36 33">
  <defs>
    <style>
      .cls-1 {
        fill: #fff;
        filter: url(#color-overlay-1);
        fill-rule: evenodd;
      }
    </style>

    <filter id="color-overlay-1" filterUnits="userSpaceOnUse">
      <feFlood flood-color="#222"/>
      <feComposite operator="in" in2="SourceGraphic"/>
      <feBlend in2="SourceGraphic" result="solidFill"/>
    </filter>
  </defs>
  <path d="M36.000,14.079 L36.000,19.760 L30.123,19.760 L30.123,17.666 L21.312,17.666 C20.888,18.982 19.655,19.941 18.184,19.941 C16.712,19.941 15.480,18.981 15.053,17.666 L14.823,17.666 C9.991,18.231 6.281,21.798 5.761,26.574 C7.196,26.930 8.265,28.203 8.265,29.728 C8.265,31.527 6.782,32.990 4.959,32.990 C3.136,32.990 1.653,31.527 1.653,29.728 C1.653,28.157 2.785,26.842 4.286,26.534 C4.678,22.693 6.941,19.467 10.167,17.666 L5.878,17.666 L5.878,19.760 L0.000,19.760 L0.000,14.079 L5.878,14.079 L5.878,16.231 L14.582,16.231 C14.698,16.217 14.811,16.194 14.928,16.183 C15.173,14.621 16.533,13.416 18.184,13.416 C19.606,13.416 20.810,14.312 21.276,15.557 C26.423,15.233 30.312,11.400 30.813,6.372 C29.462,5.963 28.469,4.734 28.469,3.267 C28.469,1.468 29.952,0.005 31.776,0.005 C33.599,0.005 35.082,1.468 35.082,3.267 C35.082,4.896 33.862,6.238 32.278,6.480 C31.830,10.962 28.919,14.671 24.863,16.231 L30.123,16.231 L30.123,14.079 L36.000,14.079 ZM31.592,18.383 L34.531,18.383 L34.531,15.514 L31.592,15.514 L31.592,18.383 ZM3.123,29.728 C3.123,30.727 3.947,31.540 4.959,31.540 C5.972,31.540 6.796,30.727 6.796,29.728 C6.796,28.729 5.972,27.916 4.959,27.916 C3.947,27.916 3.123,28.729 3.123,29.728 ZM4.408,15.514 L1.469,15.514 L1.469,18.383 L4.408,18.383 L4.408,15.514 ZM18.184,14.866 C17.171,14.866 16.347,15.680 16.347,16.678 C16.347,17.678 17.171,18.491 18.184,18.491 C19.197,18.491 20.020,17.678 20.020,16.678 C20.020,15.680 19.197,14.866 18.184,14.866 ZM33.612,3.267 C33.612,2.268 32.789,1.455 31.776,1.455 C30.763,1.455 29.939,2.268 29.939,3.267 C29.939,4.267 30.763,5.080 31.776,5.080 C32.789,5.080 33.612,4.267 33.612,3.267 Z" class="cls-1"/>
</svg>
