<svg xmlns="http://www.w3.org/2000/svg" preserveAspectRatio="xMidYMid" width="39" height="39" viewBox="0 0 39 39"><defs><style>.cls-1{fill:#fff;filter:url(#color-overlay-1);fill-rule:evenodd}</style><filter id="color-overlay-1" filterUnits="userSpaceOnUse"><feFlood flood-color="#444"/><feComposite operator="in" in2="SourceGraphic"/><feBlend in2="SourceGraphic" result="solidFill"/></filter></defs><path d="M38.522 14.145c-.669 1.615-2.027 2.917-3.733 3.583a5.382 5.382 0 0 1-.215 3.543c-.619 1.492-1.833 2.646-3.417 3.247a6.413 6.413 0 0 1-2.294.422 6.466 6.466 0 0 1-2.574-.557l.036.018c-.035.082-3.749 8.249-3.749 13.847v.749h-8.771l.224-.928c.068-.283 1.582-7.032-4.436-12.452-.31.034-.619.085-.934.085-3.322 0-6.286-1.853-7.554-4.721a7.13 7.13 0 0 1 .227-6.287 8.89 8.89 0 0 1-.629-8.095c1.024-2.468 3.034-4.378 5.661-5.375 3.118-1.185 6.766-.815 9.543.929a9.558 9.558 0 0 1 2.611-1.49 10.058 10.058 0 0 1 3.587-.658c3.871 0 7.327 2.156 8.805 5.496l.036.083a7.262 7.262 0 0 1 1.241-.106c2.763 0 5.228 1.537 6.28 3.915a5.98 5.98 0 0 1 .055 4.752zm-22.89 23.354h5.83c.271-5.834 3.535-13.369 3.68-13.7l.424.215c-.207-.123-.416-.243-.606-.389a7.318 7.318 0 0 1-2.321 1.426 7.86 7.86 0 0 1-2.796.514c-2.019 0-3.973-.787-5.379-2.135a8.21 8.21 0 0 1-2.732 1.708c-.119.046-.246.063-.367.103 4.628 4.714 4.531 10.122 4.267 12.258zm21.476-27.496c-.813-1.839-2.745-3.026-4.921-3.026-.513 0-1.023.067-1.518.201l-.673.183-.223-.666a7.64 7.64 0 0 0-.222-.587c-1.239-2.797-4.162-4.605-7.446-4.605a8.583 8.583 0 0 0-3.062.561 8.084 8.084 0 0 0-2.581 1.579l-.442.405-.487-.347c-1.525-1.084-3.42-1.682-5.335-1.682a9.312 9.312 0 0 0-3.31.607c-2.238.85-3.947 2.466-4.812 4.551a7.39 7.39 0 0 0 .071 5.875c.173.393.393.783.671 1.196l.271.401-.252.413c-1.003 1.641-1.139 3.576-.373 5.31 1.029 2.329 3.46 3.832 6.195 3.832.875 0 1.733-.158 2.548-.468a6.628 6.628 0 0 0 2.699-1.883l.573-.673.563.683c1.137 1.38 2.932 2.205 4.801 2.205a6.38 6.38 0 0 0 2.27-.418 5.91 5.91 0 0 0 2.267-1.551l.519-.563.546.537c.885.869 2.131 1.368 3.418 1.369.607 0 1.202-.11 1.769-.326 1.198-.453 2.11-1.315 2.569-2.423a3.896 3.896 0 0 0-.021-3.064l-.056-.118-.32-.79 1.025-.267c.126-.031.254-.061.38-.107 1.368-.521 2.413-1.507 2.941-2.779a4.49 4.49 0 0 0-.042-3.565zm-19.073 19.67l-1.331.67-2.231-4.494 1.331-.671 2.231 4.495zm2.299.458l-.744 4.494-1.467-.245.744-4.495 1.467.246z" class="cls-1"/></svg>