<svg xmlns="http://www.w3.org/2000/svg" preserveAspectRatio="xMidYMid" width="47" height="38" viewBox="0 0 47 38"><defs><style>.cls-1{fill:#fff;filter:url(#color-overlay-1);fill-rule:evenodd}</style><filter id="color-overlay-1" filterUnits="userSpaceOnUse"><feFlood flood-color="#222"/><feComposite operator="in" in2="SourceGraphic"/><feBlend in2="SourceGraphic" result="solidFill"/></filter></defs><path d="M35.25 37.193a11.775 11.775 0 0 1-10.074-5.66H12.959c.001.021.007.04.007.061 0 3.528-2.909 6.399-6.483 6.399C2.908 37.993 0 35.122 0 31.594c0-1.609.625-3.064 1.622-4.189l-.001-.011v-8c0-2.206 1.818-4 4.051-4h2.432v-5.6h1.62v5.6h.811v-5.6h1.62v5.6H23.5v-2.4c0-.06.022-.112.034-.168l-1.7-.783a.795.795 0 0 1-.391-1.064.815.815 0 0 1 1.077-.387l4.672 2.154a.795.795 0 0 1 .392 1.063.81.81 0 0 1-1.077.387l-1.386-.639v1.837h4.538c.428-.229.874-.431 1.332-.608a.775.775 0 0 1-.041-.463l1.354-5.44a.81.81 0 0 1 .98-.585.8.8 0 0 1 .594.968l-1.254 5.036a11.837 11.837 0 0 1 2.626-.307c6.479 0 11.75 5.203 11.75 11.598 0 6.396-5.271 11.6-11.75 11.6zM1.621 31.594c0 2.646 2.181 4.799 4.862 4.799s4.862-2.153 4.862-4.799c0-.305-.036-.601-.091-.89-.028-.148-.078-.287-.119-.43-.044-.15-.083-.302-.141-.446-.048-.12-.11-.231-.167-.346a4.624 4.624 0 0 0-.252-.458c-.061-.096-.131-.185-.198-.276a5.064 5.064 0 0 0-.359-.429 4.823 4.823 0 0 0-.673-.585 3.966 3.966 0 0 0-.772-.456c-.097-.046-.192-.095-.292-.135a5.06 5.06 0 0 0-.591-.182c-.094-.023-.185-.057-.281-.075a4.875 4.875 0 0 0-1.9.005c-.049.01-.093.031-.141.042a4.856 4.856 0 0 0-1.989.997c-.111.092-.231.171-.335.274a4.754 4.754 0 0 0-1.423 3.39zm4.051-14.6a2.424 2.424 0 0 0-2.281 1.6h10.385c.448 0 .81.358.81.8a.804.804 0 0 1-.81.799H3.242l.001 1.626h10.533a.81.81 0 0 1 .81.812.81.81 0 0 1-.81.813H3.245l.002 2.601a6.427 6.427 0 0 1 2.061-.733c.384-.07.775-.118 1.175-.118.399 0 .793.046 1.182.118.164.03.319.08.478.122.228.06.452.123.672.206.136.052.266.109.397.17 1.77.791 3.216 2.285 3.754 4.106H24.31a28.48 28.48 0 0 1-.283-.887c-.296-.989-.527-2.04-.527-3.036 0-.065.01-.128.011-.193-.002-.07-.011-.137-.011-.207 0-3.412 1.509-6.475 3.893-8.599H5.672zm29.578-1.4c-1.19 0-2.327.215-3.389.588l-1.301.712c-3.304 1.807-5.365 5.217-5.428 8.928.125 5.409 4.611 9.771 10.118 9.771 5.585 0 10.129-4.485 10.129-10 0-5.513-4.544-9.999-10.129-9.999zm0 16.8c-3.798 0-6.888-3.052-6.888-6.801s3.09-6.799 6.888-6.799 6.888 3.05 6.888 6.799c0 3.749-3.09 6.801-6.888 6.801zm0-12.001c-2.904 0-5.267 2.333-5.267 5.2 0 2.868 2.363 5.2 5.267 5.2 2.904 0 5.267-2.332 5.267-5.2 0-2.867-2.363-5.2-5.267-5.2zm-.135 6.801a1.611 1.611 0 0 1-1.621-1.601 1.61 1.61 0 0 1 1.621-1.599c.895 0 1.62.716 1.62 1.599a1.61 1.61 0 0 1-1.62 1.601zM6.483 29.768c.894 0 1.621.718 1.621 1.6 0 .884-.727 1.601-1.621 1.601a1.612 1.612 0 0 1-1.621-1.601c0-.882.727-1.6 1.621-1.6zM33.679 4.206l-.652-1.464c1.308-.567 2.434-1.464 3.441-2.739l1.278.983c-1.177 1.49-2.507 2.543-4.067 3.22zm-10.231.343c-1.288-.196-2.619-.399-3.876-.483l.111-1.597c1.326.09 2.691.298 4.011.499.959.146 1.951.296 2.911.398l-.175 1.591a66.644 66.644 0 0 1-2.982-.408zM10.462 8.624l-1.409-.792c.977-1.691 2.104-2.945 3.449-3.834l.902 1.329c-1.131.748-2.094 1.826-2.942 3.297z" class="cls-1"/></svg>