<svg xmlns="http://www.w3.org/2000/svg" preserveAspectRatio="xMidYMid" width="36" height="33" viewBox="0 0 36 33"><defs><style>.cls-1{fill:#fff;filter:url(#color-overlay-1);fill-rule:evenodd}</style><filter id="color-overlay-1" filterUnits="userSpaceOnUse"><feFlood flood-color="#222"/><feComposite operator="in" in2="SourceGraphic"/><feBlend in2="SourceGraphic" result="solidFill"/></filter></defs><path d="M36 14.079v5.681h-5.877v-2.094h-8.811a3.29 3.29 0 0 1-6.259 0h-.23c-4.832.565-8.542 4.132-9.062 8.908 1.435.356 2.504 1.629 2.504 3.154 0 1.799-1.483 3.262-3.306 3.262s-3.306-1.463-3.306-3.262c0-1.571 1.132-2.886 2.633-3.194.392-3.841 2.655-7.067 5.881-8.868H5.878v2.094H0v-5.681h5.878v2.152h8.704c.116-.014.229-.037.346-.048a3.29 3.29 0 0 1 3.256-2.767 3.3 3.3 0 0 1 3.092 2.141c5.147-.324 9.036-4.157 9.537-9.185-1.351-.409-2.344-1.638-2.344-3.105 0-1.799 1.483-3.262 3.307-3.262 1.823 0 3.306 1.463 3.306 3.262 0 1.629-1.22 2.971-2.804 3.213a11.648 11.648 0 0 1-7.415 9.751h5.26v-2.152H36zm-4.408 4.304h2.939v-2.869h-2.939v2.869zM3.123 29.728c0 .999.824 1.812 1.836 1.812 1.013 0 1.837-.813 1.837-1.812 0-.999-.824-1.812-1.837-1.812-1.012 0-1.836.813-1.836 1.812zm1.285-14.214H1.469v2.869h2.939v-2.869zm13.776-.648c-1.013 0-1.837.814-1.837 1.812 0 1 .824 1.813 1.837 1.813a1.826 1.826 0 0 0 1.836-1.813c0-.998-.823-1.812-1.836-1.812zM33.612 3.267c0-.999-.823-1.812-1.836-1.812-1.013 0-1.837.813-1.837 1.812 0 1 .824 1.813 1.837 1.813a1.826 1.826 0 0 0 1.836-1.813z" class="cls-1"/></svg>